# xmcd
#
# Track frame offsets:
#	150
#	20589
#	48085
#	67841
#	94559
#	114494
#	134757
#	163809
#	187291
#	203810
#
# Disc length: 2953 seconds
#
# Revision: 2
# Processed by: cddbd v1.5.2PL0 Copyright (c) Steve Scherf et al.
# Submitted via: EZCDAudioConverter 8.0.2.1
#
DISCID=8b0b870a
DTITLE=Duy Khánh - The Bets Of. Xin Anh Giữ Trọn Tình Quê [CD1)
DYEAR=2000
DGENRE=Miscellaneous
TTITLE0=Duy Khánh - Xin Anh Giữ Trọn Tình Quê
TTITLE1=Duy Khánh - Ai nhớ chăng ai
TTITLE2=Duy Khánh - Áo nhà binh
TTITLE3=Duy Khánh - Nhớ người yêu và con chim sau nhỏ
TTITLE4=Duy Khánh, Hương Lan - Con đường mang tên em
TTITLE5=Duy Khánh - Những ngày xưa thân ái
TTITLE6=Duy Khánh - Thư về em gái thành đô
TTITLE7=Duy Khánh - Ru ta một mình
TTITLE8=Duy Khánh - Trăng thanh bình
TTITLE9=Duy Khánh - Những người vượt gian khổ
EXTD=
EXTT0=
EXTT1=
EXTT2=
EXTT3=
EXTT4=
EXTT5=
EXTT6=
EXTT7=
EXTT8=
EXTT9=
PLAYORDER=
